HIERARCHY
ROOT Hips
{
	OFFSET 41.736401 -5.095396 100.235001
	CHANNELS 6 Xposition Yposition Zposition Xrotation Yrotation Zrotation
	JOINT spine
	{
		OFFSET 0.000000 -0.507025 8.817047
		CHANNELS 3 Xrotation Yrotation Zrotation
		JOINT spine1
		{
			OFFSET 0.000000 -0.000002 10.776596
			CHANNELS 3 Xrotation Yrotation Zrotation
			JOINT spine2
			{
				OFFSET 0.000000 -0.000001 10.325897
				CHANNELS 3 Xrotation Yrotation Zrotation
				JOINT Neck
				{
					OFFSET 0.000000 -1.263955 26.511002
					CHANNELS 3 Xrotation Yrotation Zrotation
					JOINT Head
					{
						OFFSET 0.000000 -0.000001 8.009659
						CHANNELS 3 Xrotation Yrotation Zrotation
						End Site
						{
							OFFSET 0.000000 6.393857 19.387894
						}
					}
				}
				JOINT RightShoulder
				{
					OFFSET -4.347950 0.605420 11.151199
					CHANNELS 3 Xrotation Yrotation Zrotation
					JOINT RightArm
					{
						OFFSET 0.000000 -0.000002 14.625793
						CHANNELS 3 Xrotation Yrotation Zrotation
						JOINT RightArmRoll
						{
							OFFSET 0.000000 -0.000001 7.383408
							CHANNELS 3 Xrotation Yrotation Zrotation
							JOINT RightForeArm
							{
								OFFSET 0.000000 -0.000003 21.505203
								CHANNELS 3 Xrotation Yrotation Zrotation
								JOINT RightForeArmRoll
								{
									OFFSET 0.000000 -0.000001 8.285324
									CHANNELS 3 Xrotation Yrotation Zrotation
									JOINT RightHand
									{
										OFFSET 0.000000 -0.000003 16.626801
										CHANNELS 3 Xrotation Yrotation Zrotation
										End Site
										{
											OFFSET 0.000000 0.000000 0.100006
										}
									}
								}
							}
						}
					}
				}
				JOINT LeftShoulder
				{
					OFFSET 4.347950 0.605420 11.151199
					CHANNELS 3 Xrotation Yrotation Zrotation
					JOINT LeftArm
					{
						OFFSET 0.000000 -0.000002 14.625793
						CHANNELS 3 Xrotation Yrotation Zrotation
						JOINT LeftArmRoll
						{
							OFFSET 0.000000 -0.000001 7.383408
							CHANNELS 3 Xrotation Yrotation Zrotation
							JOINT LeftForeArm
							{
								OFFSET 0.000000 -0.000003 21.505203
								CHANNELS 3 Xrotation Yrotation Zrotation
								JOINT LeftForeArmRoll
								{
									OFFSET 0.000000 -0.000001 8.285324
									CHANNELS 3 Xrotation Yrotation Zrotation
									JOINT LeftHand
									{
										OFFSET 0.000000 -0.000003 16.626801
										CHANNELS 3 Xrotation Yrotation Zrotation
										End Site
										{
											OFFSET 0.000000 0.000000 0.100006
										}
									}
								}
							}
						}
					}
				}
			}
		}
	}
	JOINT RightUpLeg
	{
		OFFSET -7.815102 1.202170 -1.433090
		CHANNELS 3 Xrotation Yrotation Zrotation
		JOINT RightUpLegRoll
		{
			OFFSET 0.000000 -0.000003 19.495895
			CHANNELS 3 Xrotation Yrotation Zrotation
			JOINT RightLeg
			{
				OFFSET 0.000000 0.000004 -24.142700
				CHANNELS 3 Xrotation Yrotation Zrotation
				JOINT RightLegRoll
				{
					OFFSET 0.000000 -0.000004 24.221703
					CHANNELS 3 Xrotation Yrotation Zrotation
					JOINT RightFoot
					{
						OFFSET 0.000000 -0.000003 20.160500
						CHANNELS 3 Xrotation Yrotation Zrotation
						JOINT RightToeBase
						{
							OFFSET 0.000000 -0.000003 16.853195
							CHANNELS 3 Xrotation Yrotation Zrotation
							End Site
							{
								OFFSET 0.007145 0.940778 8.161865
							}
						}
					}
				}
			}
		}
	}
	JOINT LeftUpLeg
	{
		OFFSET 7.815102 1.202170 -1.433090
		CHANNELS 3 Xrotation Yrotation Zrotation
		JOINT LeftUpLegRoll
		{
			OFFSET 0.000000 -0.000003 19.496002
			CHANNELS 3 Xrotation Yrotation Zrotation
			JOINT LeftLeg
			{
				OFFSET 0.000000 -0.000004 24.142593
				CHANNELS 3 Xrotation Yrotation Zrotation
				JOINT LeftLegRoll
				{
					OFFSET 0.000000 -0.000004 24.445602
					CHANNELS 3 Xrotation Yrotation Zrotation
					JOINT LeftFoot
					{
						OFFSET 0.000000 -0.000003 19.936600
						CHANNELS 3 Xrotation Yrotation Zrotation
						JOINT LeftToeBase
						{
							OFFSET 0.000000 -0.000003 16.853195
							CHANNELS 3 Xrotation Yrotation Zrotation
							End Site
							{
								OFFSET -0.032013 0.940778 8.161865
							}
						}
					}
				}
			}
		}
	}
}
MOTION
Frames: 12
Frame Time: 0.041667
45.505997 -6.195884 100.022003 -1.634307 -2.019190 4.142280 -2.203593 0.102390 -0.002566 -0.394973 0.212906 -0.018701 1.250108 0.212881 -0.021216 23.575585 6.464746 0.551156 -3.650854 0.078313 1.037366 -6.847578 -59.903252 -8.185137 -36.464915 -120.085859 -18.285813 0.000002 -0.000000 0.000001 0.080686 -10.068389 -0.935627 -0.000006 -0.000014 -3.087150 -5.000236 -7.998773 0.000144 -10.852499 61.936613 12.989918 -34.849340 114.873987 26.041175 0.000000 0.000012 -0.000003 1.555800 10.592183 0.353571 -0.000006 -0.000009 3.000001 -5.000228 7.998771 -0.000165 -2.555125 -175.551407 1.486011 -179.999991 0.000005 -1.036995 166.724617 -2.698036 -0.857320 -0.000003 -0.000001 0.231790 73.236744 6.587990 2.690415 25.460954 -7.343282 0.002893 0.161285 178.764998 3.509504 -0.000005 -0.000004 -1.099320 -8.297347 1.736384 0.498363 -0.000000 0.000001 -0.124544 71.224345 -6.606039 -2.773660 25.457010 7.348329 -0.000144 
45.511097 -6.212476 100.021011 -1.637359 -2.021936 4.146585 -2.200355 0.101963 -0.003013 -0.389174 0.212061 -0.018418 1.255899 0.212043 -0.020921 23.582712 6.445685 0.548341 -3.669734 0.111217 1.030933 -6.861478 -59.901736 -8.201177 -36.519717 -120.090981 -18.346506 0.000001 -0.000000 -0.000001 0.080682 -10.069493 -0.934989 -0.000003 -0.000014 -3.087008 -5.000240 -7.998773 0.000143 -10.840528 61.942309 12.976203 -34.885259 114.885831 26.091488 0.000000 0.000014 -0.000001 1.568865 10.599018 0.352063 -0.000007 -0.000009 3.000002 -5.000229 7.998773 -0.000165 -2.552530 -175.548402 1.486900 -179.999991 0.000005 -1.036995 166.723934 -2.696087 -0.856894 -0.000004 -0.000001 0.231790 73.236389 6.587362 2.692344 25.460953 -7.343284 0.002893 0.166223 178.769000 3.512689 -0.000005 -0.000004 -1.099320 -8.291686 1.734588 0.497838 -0.000001 0.000001 -0.124544 71.220527 -6.605776 -2.772942 25.457010 7.348331 -0.000146 
45.516495 -6.203856 100.024002 -1.640803 -2.024791 4.150991 -2.197014 0.101506 -0.003408 -0.383183 0.211176 -0.017989 1.261899 0.211167 -0.020481 23.590293 6.425829 0.545295 -3.689564 0.145744 1.024128 -6.876483 -59.899844 -8.218461 -36.573307 -120.096869 -18.405756 0.000001 0.000000 -0.000000 0.080682 -10.070492 -0.934392 -0.000005 -0.000014 -3.086861 -5.000241 -7.998773 0.000143 -10.827633 61.948183 12.961420 -34.922378 114.896855 26.143056 0.000000 0.000014 0.000001 1.581537 10.605851 0.350592 -0.000006 -0.000010 3.000001 -5.000230 7.998773 -0.000165 -2.549378 -175.545397 1.487801 -179.999991 0.000005 -1.036995 166.723360 -2.694126 -0.856461 -0.000003 -0.000001 0.231790 73.236034 6.586703 2.694568 25.460951 -7.343282 0.002893 0.171844 178.773016 3.515981 -0.000005 -0.000004 -1.099320 -8.285725 1.732704 0.497278 0.000000 0.000001 -0.124544 71.216634 -6.605579 -2.771940 25.457013 7.348332 -0.000145 
45.509895 -6.225805 100.024002 -1.644517 -2.027736 4.155456 -2.193583 0.101031 -0.003766 -0.377055 0.210263 -0.017458 1.268018 0.210263 -0.019937 23.598054 6.405430 0.542108 -3.710060 0.181412 1.017074 -6.892239 -59.897617 -8.236599 -36.626862 -120.102798 -18.464783 0.000001 0.000000 0.000000 0.080683 -10.071490 -0.933820 -0.000004 -0.000013 -3.086721 -5.000237 -7.998771 0.000143 -10.814098 61.954214 12.945898 -34.958011 114.908685 26.192981 0.000002 0.000014 -0.000002 1.593944 10.612687 0.349134 -0.000002 -0.000009 3.000003 -5.000228 7.998772 -0.000165 -2.545860 -175.541394 1.488667 -179.999991 0.000005 -1.036995 166.722759 -2.693149 -0.856260 -0.000004 -0.000001 0.231790 73.235774 6.586040 2.696685 25.460953 -7.343284 0.002893 0.177939 178.778002 3.519346 -0.000005 -0.000004 -1.099320 -8.279554 1.730762 0.496693 -0.000000 0.000001 -0.124544 71.212727 -6.605345 -2.770934 25.457013 7.348332 -0.000145 
45.507698 -6.218606 100.022003 -1.648393 -2.030721 4.159962 -2.190123 0.100543 -0.004104 -0.370849 0.209333 -0.016868 1.274228 0.209345 -0.019336 23.606010 6.384729 0.538814 -3.730929 0.217733 1.009889 -6.908424 -59.895261 -8.255229 -36.681288 -120.107866 -18.524858 0.000002 0.000000 -0.000000 0.080685 -10.072391 -0.933263 -0.000004 -0.000014 -3.086583 -5.000241 -7.998771 0.000142 -10.800208 61.960368 12.929968 -34.993832 114.920542 26.243023 0.000000 0.000013 -0.000001 1.606187 10.619420 0.347697 -0.000007 -0.000010 3.000001 -5.000230 7.998774 -0.000163 -2.542121 -175.538389 1.489585 -179.999991 0.000005 -1.036995 166.722281 -2.691202 -0.855825 -0.000003 -0.000001 0.231790 73.235426 6.585385 2.699007 25.460949 -7.343282 0.002893 0.184303 178.782018 3.522753 -0.000005 -0.000005 -1.099320 -8.273262 1.728790 0.496097 -0.000000 0.000001 -0.124544 71.208827 -6.605115 -2.769926 25.457011 7.348332 -0.000145 
45.505295 -6.226638 100.023003 -1.652309 -2.033726 4.164477 -2.186645 0.100054 -0.004436 -0.364625 0.208399 -0.016264 1.280448 0.208423 -0.018718 23.613960 6.363935 0.535525 -3.751900 0.254220 1.002691 -6.924728 -59.892802 -8.273977 -36.734642 -120.113781 -18.583724 0.000001 -0.000000 -0.000000 0.080682 -10.073291 -0.932711 -0.000004 -0.000014 -3.086440 -5.000238 -7.998771 0.000144 -10.786198 61.966420 12.913897 -35.029414 114.932372 26.292844 0.000001 0.000014 -0.000001 1.618406 10.626256 0.346253 -0.000004 -0.000010 2.999999 -5.000230 7.998774 -0.000165 -2.538321 -175.535370 1.490508 -179.999991 0.000005 -1.036995 166.721803 -2.689242 -0.855387 -0.000004 -0.000001 0.231790 73.235153 6.584693 2.701322 25.460953 -7.343282 0.002893 0.190733 178.785994 3.526159 -0.000005 -0.000004 -1.099320 -8.266931 1.726809 0.495495 -0.000000 0.000001 -0.124544 71.204927 -6.604882 -2.768919 25.457013 7.348332 -0.000145 
45.511097 -6.228545 100.024002 -1.656146 -2.036700 4.168975 -2.183184 0.099570 -0.004779 -0.358441 0.207474 -0.015689 1.286638 0.207509 -0.018130 23.621818 6.343308 0.532275 -3.772683 0.290390 0.995598 -6.940793 -59.890452 -8.292472 -36.787979 -120.119723 -18.642556 0.000001 -0.000000 -0.000002 0.080683 -10.074290 -0.932151 -0.000005 -0.000014 -3.086299 -5.000238 -7.998772 0.000143 -10.772345 61.972465 12.898005 -35.064969 114.944202 26.342667 0.000001 0.000014 -0.000002 1.630687 10.632992 0.344805 -0.000007 -0.000010 3.000001 -5.000232 7.998772 -0.000165 -2.534630 -175.532351 1.491423 -179.999991 0.000005 -1.036995 166.721216 -2.687295 -0.854956 -0.000003 -0.000001 0.231790 73.234900 6.584029 2.703539 25.460949 -7.343282 0.002893 0.197029 178.790993 3.529563 -0.000005 -0.000005 -1.099320 -8.260660 1.724837 0.494901 -0.000000 0.000001 -0.124544 71.201020 -6.604647 -2.767911 25.457006 7.348331 -0.000144 
45.511295 -6.217347 100.024002 -1.659780 -2.039615 4.173431 -2.179785 0.099099 -0.005148 -0.352351 0.206569 -0.015186 1.292719 0.206613 -0.017615 23.629500 6.323066 0.529148 -3.792992 0.325754 0.988724 -6.956316 -59.888308 -8.310353 -36.841463 -120.125733 -18.701623 -0.000000 0.000000 0.000000 0.080680 -10.075290 -0.931571 -0.000002 -0.000014 -3.086160 -5.000240 -7.998773 0.000143 -10.758977 61.978468 12.882673 -35.100489 114.956045 26.392500 0.000000 0.000013 -0.000001 1.643180 10.639825 0.343330 -0.000007 -0.000010 3.000000 -5.000228 7.998772 -0.000166 -2.531211 -175.529359 1.492337 -179.999991 0.000005 -1.036995 166.720751 -2.685335 -0.854518 -0.000004 -0.000001 0.231790 73.234538 6.583373 2.705764 25.460953 -7.343282 0.002893 0.202987 178.795009 3.532911 -0.000005 -0.000004 -1.099320 -8.254547 1.722915 0.494326 -0.000000 0.000001 -0.124544 71.197216 -6.604381 -2.766993 25.457010 7.348332 -0.000145 
45.504597 -6.221846 100.024002 -1.663104 -2.042441 4.177789 -2.176475 0.098652 -0.005557 -0.346418 0.205696 -0.014800 1.298659 0.205749 -0.017217 23.637012 6.303432 0.526205 -3.812542 0.359824 0.982185 -6.970978 -59.886545 -8.327256 -36.896118 -120.131034 -18.762110 0.000001 -0.000000 0.000000 0.080682 -10.076290 -0.930960 -0.000005 -0.000013 -3.086011 -5.000238 -7.998773 0.000143 -10.746340 61.984315 12.868201 -35.136173 114.967957 26.442541 -0.000000 0.000013 0.000000 1.655967 10.646655 0.341828 -0.000005 -0.000009 3.000002 -5.000230 7.998773 -0.000166 -2.528246 -175.525343 1.493192 -179.999991 0.000005 -1.036995 166.720055 -2.684356 -0.854321 -0.000004 -0.000001 0.231790 73.234197 6.582746 2.707791 25.460949 -7.343282 0.002893 0.208402 178.799012 3.536172 -0.000005 -0.000004 -1.099320 -8.248676 1.721060 0.493779 -0.000001 0.000001 -0.124544 71.193309 -6.604182 -2.766091 25.457010 7.348332 -0.000144 
45.502495 -6.223119 100.026001 -1.666001 -2.045147 4.182058 -2.173274 0.098234 -0.006024 -0.340695 0.204868 -0.014573 1.304378 0.204927 -0.016979 23.644061 6.284668 0.523521 -3.831060 0.392114 0.976093 -6.984426 -59.885118 -8.342764 -36.949892 -120.137208 -18.821628 0.000001 0.000000 -0.000000 0.080680 -10.077490 -0.930308 -0.000003 -0.000015 -3.085861 -5.000237 -7.998773 0.000142 -10.734712 61.989964 12.854888 -35.171830 114.979869 26.492659 0.000001 0.000013 0.000000 1.669191 10.653581 0.340278 -0.000007 -0.000010 3.000001 -5.000227 7.998772 -0.000166 -2.525867 -175.522324 1.494066 -179.999991 0.000005 -1.036995 166.719385 -2.682408 -0.853896 -0.000003 -0.000001 0.231790 73.233835 6.582089 2.709815 25.460953 -7.343282 0.002892 0.213072 178.803001 3.539329 -0.000005 -0.000004 -1.099320 -8.243156 1.719292 0.493272 -0.000000 0.000001 -0.124544 71.189416 -6.603978 -2.765288 25.457011 7.348332 -0.000145 
45.507996 -6.224683 100.025002 -1.668337 -2.047673 4.186182 -2.170235 0.097856 -0.006563 -0.335245 0.204097 -0.014551 1.309828 0.204158 -0.016945 23.650660 6.266993 0.521159 -3.848264 0.422136 0.970558 -6.996337 -59.884285 -8.356547 -37.003813 -120.143451 -18.881587 0.000001 0.000000 -0.000000 0.080680 -10.078792 -0.929602 -0.000004 -0.000013 -3.085711 -5.000238 -7.998773 0.000143 -10.724360 61.995332 12.843051 -35.208905 114.991016 26.544420 0.000002 0.000014 -0.000002 1.682946 10.660605 0.338677 -0.000005 -0.000010 3.000001 -5.000227 7.998774 -0.000166 -2.524254 -175.519333 1.494921 -179.999991 0.000005 -1.036995 166.718579 -2.681428 -0.853704 -0.000004 -0.000001 0.231790 73.233398 6.581496 2.711553 25.460953 -7.343282 0.002893 0.216791 178.807017 3.542347 -0.000005 -0.000005 -1.099320 -8.238047 1.717652 0.492816 -0.000001 0.000001 -0.124544 71.185632 -6.603776 -2.764778 25.457011 7.348332 -0.000145 
45.505096 -6.222568 100.023010 -1.670018 -2.050001 4.190134 -2.167385 0.097527 -0.007188 -0.330122 0.203396 -0.014775 1.314948 0.203453 -0.017160 23.656628 6.250642 0.519189 -3.863861 0.449402 0.965692 -7.006408 -59.884148 -8.368245 -37.058913 -120.148997 -18.943053 0.000002 0.000000 -0.000000 0.080682 -10.080190 -0.928827 -0.000003 -0.000015 -3.085550 -5.000238 -7.998773 0.000143 -10.715585 62.000462 12.833045 -35.245733 115.002149 26.596111 0.000003 0.000012 -0.000002 1.697365 10.667726 0.337006 -0.000006 -0.000010 3.000001 -5.000228 7.998772 -0.000164 -2.523572 -175.516341 1.495741 -179.999991 0.000005 -1.036995 166.717596 -2.680434 -0.853518 -0.000003 -0.000001 0.231790 73.232762 6.580976 2.713114 25.460953 -7.343283 0.002893 0.219358 178.810008 3.545195 -0.000005 -0.000004 -1.099320 -8.233478 1.716148 0.492420 -0.000001 0.000001 -0.124544 71.181855 -6.603604 -2.764274 25.457011 7.348331 -0.000144 
